/vscmnt/brussel_pixiu_data/_data_brussel/112/vsc11236/PredSimResults/SUBJ11opt3D/weighted-LRposFixed/trackIG/worker_03.mot
version=1
nRows=4
nColumns=50
inDegrees=yes
endheader
                time	         pelvis_tilt	         pelvis_list	     pelvis_rotation	           pelvis_tx	           pelvis_ty	           pelvis_tz	       hip_flexion_r	     hip_adduction_r	      hip_rotation_r	        knee_angle_r	       ankle_angle_r	         mtp_angle_r	       hip_flexion_l	     hip_adduction_l	      hip_rotation_l	        knee_angle_l	       ankle_angle_l	         mtp_angle_l	    lumbar_extension	      lumbar_bending	     lumbar_rotation	 ercspn_r/activation	 intobl_r/activation	 extobl_r/activation	    abd_r/activation	    add_r/activation	hamstrings_r/activation	bifemsh_r/activation	glut_max_r/activation	iliopsoas_r/activation	rect_fem_r/activation	  vasti_r/activation	gastroc_r/activation	 soleus_r/activation	tib_ant_r/activation	 ercspn_l/activation	 intobl_l/activation	 extobl_l/activation	    abd_l/activation	    add_l/activation	hamstrings_l/activation	bifemsh_l/activation	glut_max_l/activation	iliopsoas_l/activation	rect_fem_l/activation	  vasti_l/activation	gastroc_l/activation	 soleus_l/activation	tib_ant_l/activation	
          2.08889846	         -2.81265908	          1.37696081	         -6.06757053	          2.19334338	          0.94160554	          0.00487064	        -13.58575077	         -3.28692757	         -1.22558865	        -11.81093016	         13.11156256	         28.88729154	         31.11603795	         -1.47373357	         -4.12591622	         -9.64968372	          1.81600452	          0.22595110	        -14.27832052	          2.37037837	          3.29055704	          0.00999999	          0.00999999	          0.00999999	          0.04250506	          0.00999999	          0.02260054	          0.30893789	          0.02839416	          0.19639612	          0.00999999	          0.00999999	          0.17194069	          0.33833564	          0.01496605	          0.02934531	          0.26127890	          0.07019964	          0.00999999	          0.20558876	          0.04424812	          0.14098234	          0.03498510	          0.11197114	          0.04409628	          0.01842219	          0.00999999	          0.00999999	          0.40982147	
          2.10282445	         -2.96135423	          1.43790443	         -6.18744396	          2.21201492	          0.93926072	          0.00360494	        -14.12574729	         -3.55609877	         -1.56480940	        -12.56068459	         12.37814570	         30.72180624	         30.99136485	         -1.27826346	         -4.34108061	        -10.86840167	          1.29656022	          0.23217457	        -13.81133438	          1.84582447	          3.49792941	          0.01523243	          0.00999999	          0.00999999	          0.03449807	          0.06071763	          0.03017728	          0.26250416	          0.02304534	          0.23093023	          0.00999999	          0.00999999	          0.14316943	          0.31878797	          0.01214678	          0.02381732	          0.21205985	          0.05697561	          0.00999999	          0.23791560	          0.04225935	          0.11442445	          0.09921872	          0.09087830	          0.03578953	          0.01495187	          0.01304798	          0.01232099	          0.43240149	
          2.11675044	         -3.08691469	          1.50923121	         -6.28765122	          2.23115053	          0.93718627	          0.00228475	        -14.52326367	         -3.84806279	         -1.91296543	        -13.63057426	         11.49656759	         32.65105742	         30.74856739	         -1.10218797	         -4.45825908	        -12.19235636	          0.82106969	          0.20897451	        -13.30504022	          1.30089569	          3.70384498	          0.01236298	          0.00999999	          0.00999999	          0.02799941	          0.04927980	          0.02937937	          0.21305430	          0.01870412	          0.21664435	          0.00999999	          0.00999999	          0.11619954	          0.29354687	          0.00999999	          0.01933067	          0.17211255	          0.04624269	          0.05076910	          0.22450914	          0.05155589	          0.09286946	          0.12281851	          0.07375888	          0.02904759	          0.01213527	          0.01059004	          0.00999999	          0.50256982	
          2.13067643	         -3.19247189	          1.57357870	         -6.35736008	          2.25038693	          0.93560426	          0.00087429	        -14.67877812	         -4.14489914	         -2.27315536	        -15.13684942	         10.41525146	         34.68413647	         30.49340799	         -0.94309382	         -4.65681149	        -13.48624940	          0.11041910	          0.18096346	        -12.80317910	          0.76194694	          3.89718064	          0.03839458	          0.00999999	          0.00999999	          0.02272495	          0.04680222	          0.03365290	          0.17291968	          0.01518069	          0.19711429	          0.00999999	          0.00999999	          0.09431016	          0.26475409	          0.00999999	          0.02831465	          0.13969043	          0.03753161	          0.08780825	          0.27000878	          0.05061604	          0.07537495	          0.12851856	          0.05986437	          0.02357568	          0.02557741	          0.00999999	          0.00999999	          0.56232108	
